<?xml version="1.0" standalone="no"?>
<!DOCTYPE svg PUBLIC "-//W3C//DTD SVG 1.1//EN" "http://www.w3.org/Graphics/SVG/1.1/DTD/svg11.dtd" >
<svg xmlns="http://www.w3.org/2000/svg" xmlns:xlink="http://www.w3.org/1999/xlink" version="1.1">
<metadata>
Created by FontForge 20160407 at Sat Sep 24 08:53:40 2016
 By Jimmy Warting
BabelStone Irk Bitig (c) BabelStone, 2011-2013.
</metadata>
<defs>
<font id="BabelStoneIrkBitig" horiz-adv-x="5699" >
  <font-face 
    font-family="BabelStone Irk Bitig"
    font-weight="400"
    font-stretch="normal"
    units-per-em="2048"
    panose-1="2 0 0 0 0 0 0 0 0 0"
    ascent="1638"
    descent="-410"
    bbox="191 -300 5499 1800"
    underline-thickness="200"
    underline-position="-100"
    unicode-range="U+2680-10C47"
  />
<missing-glyph horiz-adv-x="1800" 
d="M400 1800h1000q200 0 200 -200v-1700q0 -200 -200 -200h-1000q-200 0 -200 200v1700q0 200 200 200zM1400 -100v1700h-1000v-1700h1000zM750 1400h300q200 0 200 -200v-300q0 -200 -200 -200h-100v-200h-200v200q0 200 200 200h100v300h-300v-200h-200v200q0 200 200 200
zM750 100v200h200v-200h-200z" />
    <glyph glyph-name=".notdef" horiz-adv-x="1800" 
d="M400 1800h1000q200 0 200 -200v-1700q0 -200 -200 -200h-1000q-200 0 -200 200v1700q0 200 200 200zM1400 -100v1700h-1000v-1700h1000zM750 1400h300q200 0 200 -200v-300q0 -200 -200 -200h-100v-200h-200v200q0 200 200 200h100v300h-300v-200h-200v200q0 200 200 200
zM750 100v200h200v-200h-200z" />
    <glyph glyph-name=".null" horiz-adv-x="0" 
 />
    <glyph glyph-name="nonmarkingreturn" horiz-adv-x="569" 
 />
    <glyph glyph-name="uni2680" unicode="&#x2680;" 
d="M2936 1144q240 0 365 -192q77 -5 77 -39q0 -273 -237 -388t-416 -169q-403 0 -403 250v77q0 196 442 422zM2629 740q0 -88 231 -134h19q134 0 134 134v58q-66 154 -173 154h-38q-115 0 -173 -212z" />
    <glyph glyph-name="uni2681" unicode="&#x2681;" 
d="M2332 1115q384 -74 384 -269q0 -192 -691 -422q-167 -39 -307 -39q-154 58 -154 231v38q0 261 518 422zM3714 1115h39q384 -116 384 -307q-189 -346 -749 -346h-96q-169 0 -192 269q54 345 307 345l154 -19zM3424 874q0 -232 137 -240q173 20 240 88q-10 171 -240 239
q-129 0 -137 -87zM1890 788v-76q0 -135 135 -135q163 48 307 211v39q0 66 -211 96h-39q-123 0 -192 -135z" />
    <glyph glyph-name="uni2682" unicode="&#x2682;" 
d="M4702 1209q303 -38 461 -134l-19 -96l19 -19v-20q-122 -403 -252.5 -431.5t-361.5 -86.5q-214 0 -327 288v115q0 135 288 307q32 63 192 77zM3224 1136q175 0 346 -212v-57q0 -107 -77 -177.5t-672 -283.5l-154 -19q-177 67 -211 230v96q103 403 403 403zM4434 844
q0 -165 153 -230h77q192 118 192 250v76q-53 96 -154 96q-268 0 -268 -192zM1266 1020q377 -76 499 -230v-58q-276 -326 -579 -384l-304 -57q-346 143 -346 307v115q51 269 269 269h77l153 -38zM2840 790q0 -58 154 -154h57q115 91 115 192q-49 96 -153 96h-96
q-77 -31 -77 -134zM920 867v-154q9 -136 77 -153h134q271 83 288 134q0 83 -403 115q0 44 -96 58z" />
    <glyph glyph-name="uni2683" unicode="&#x2683;" 
d="M795 1086h211q173 0 231 -192q-219 -422 -519 -422q0 -39 -96 -39q-108 6 -230 39q-160 0 -192 230v38q141 404 403 404q135 -58 192 -58zM1986 1105l134 -57h154q190 0 384 -250v-38q-99 -261 -538 -327h-154q-403 113 -403 327q251 345 423 345zM3502 1048h192
q442 -126 442 -288q-167 -323 -538 -327h-307q-211 52 -211 192v39q69 320 422 384zM5154 1048q345 -125 345 -250q0 -164 -166.5 -269t-486.5 -173h-76q-218 0 -250 288q133 253 480 384l77 -19zM433 798q0 -168 209 -192h96q34 0 115 134v77q-83 154 -191 154h-76
q-153 0 -153 -173zM4808 683v-39q3 -36 154 -133h38q173 108 173 210v77l-115 67h-77q-173 -24 -173 -182zM1928 798v-96q49 -115 154 -115h57q96 0 135 96v38q0 106 -116 173h-96q-96 0 -134 -96zM3387 702q57 -154 211 -154q101 0 173 116v96q-60 115 -211 115h-58
q-115 -67 -115 -173z" />
    <glyph glyph-name="uni2E31" unicode="&#x2e31;" horiz-adv-x="765" 
d="M469 991q83 -3 96 -78q0 -94 -365 -96q0 154 269 174zM450 682q102 0 108 -112q-114 -55 -281 -61q-77 20 -77 61q95 112 250 112z" />
    <glyph glyph-name="u10C00" unicode="&#x10c00;" horiz-adv-x="2128" 
d="M1064 1355q115 0 230 -192h77l154 38h153q141 0 250 -105v-29q-170 -58 -576 -116l-19 -19v-307q-110 -422 -192 -422l-365 -58v115q0 70 -58 115l-422 -57l-96 19v58q0 72 442 153h115v135q-53 460 -154 460v39q0 96 461 173z" />
    <glyph glyph-name="u10C03" unicode="&#x10c03;" horiz-adv-x="1571" 
d="M411 1326q71 0 192 -77l423 77h230q115 -42 115 -108q-205 -90 -537 -134v-75l76 -336v-153q0 -177 -230 -243q-151 -57 -346 -103q-91 7 -96 77l58 115v307q-96 365 -96 461t62 144t149 48z" />
    <glyph glyph-name="u10C06" unicode="&#x10c06;" horiz-adv-x="1882" 
d="M633 1441q115 -26 283 -333l466 -83h84l149 16l67 -50q-883 -367 -883 -616v-33l17 -167l-483 -116q-66 16 -66 100v66q0 161 216 350q210 117 583 216l50 67l-33 33h-250l-317 -16q-160 0 -316 383q0 66 133 66q109 117 300 117z" />
    <glyph glyph-name="u10C07" unicode="&#x10c07;" horiz-adv-x="1859" 
d="M1544 1335q88 -9 96 -57l-19 -288v-39q38 -57 38 -134q-749 -161 -749 -288q-104 -250 -364 -250q-257 -115 -327 -115h-19q269 252 269 653l-96 345l288 96h134q191 -152 191 -345v-192l78 20l58 37v304q0 170 422 253z" />
    <glyph glyph-name="u10C09" unicode="&#x10c09;" horiz-adv-x="1648" 
d="M488 1230q542 -38 845 -173q115 -155 115 -288q0 -125 -346 -384q-278 -108 -614 -115q-125 43 -250 346v19q0 38 288 96q224 0 269 -211l58 -58h57q96 176 96 269q0 269 -441 345h-327l-38 39q0 96 288 115z" />
    <glyph glyph-name="u10C0B" unicode="&#x10c0b;" horiz-adv-x="1955" 
d="M949 1460q384 -33 384 -230l-39 -154q461 -66 461 -172v-20q0 -57 -345 -192v-19q0 -38 153 -57q135 -141 135 -269q0 -250 -346 -250q-68 -57 -192 -57l-19 19v96q96 132 96 249v39l-77 77h-77q-77 0 -211 -365l-250 -77h-19q-115 0 -115 115v19q0 189 230 346l-19 19
h-19l-154 -19h-211q-115 25 -115 58v57q374 135 499 403q58 71 58 135v177q0 39 192 72zM891 769v-19l39 -38h76q231 63 231 134v19l-39 39h-19z" />
    <glyph glyph-name="u10C0D" unicode="&#x10c0d;" horiz-adv-x="2090" 
d="M1621 1355h57q116 -12 116 -58l-135 -192v-57q0 -71 231 -116v-57q0 -51 -308 -154q-345 35 -364 231v57q145 346 403 346zM699 1316h39q198 0 326 -172v-39q-486 -361 -806 -441l-58 19v57l288 231l19 19v19q-96 130 -96 192q64 115 288 115zM968 798q239 0 422 -230
v-39q-472 -311 -748 -384l-20 19v20q212 169 212 268l-135 192q0 108 269 154z" />
    <glyph glyph-name="u10C0F" unicode="&#x10c0f;" horiz-adv-x="1763" 
d="M450 1326q91 0 230 -96q480 0 480 -77v-19q-90 0 -518 -307q384 -77 614 -77v-19q0 -46 -326 -96l-135 -39l-19 -57q143 -102 576 -173h173l38 -38q-385 -154 -576 -154q-787 107 -787 384q13 250 134 250q250 148 250 192l-38 38l-192 -19q-77 0 -116 77v19
q0 211 212 211z" />
    <glyph glyph-name="u10C11" unicode="&#x10c11;" horiz-adv-x="2090" 
d="M411 1316l96 -19h327q384 0 384 -173q0 -74 -365 -364q0 -34 192 -173l19 -96v-19q-167 -146 -806 -288l-58 19v19q0 32 288 211l19 96q-38 39 -153 39q-77 57 -77 153q403 274 403 384l-19 19l-135 -19h-115q-146 0 -173 77v38q0 30 173 96zM1544 1220q346 -86 346 -153
v-39q-22 -91 -308 -172l-57 -77l249 -250v-19q-13 -32 -556 -192q-77 29 -77 58l134 115v38l-173 192q0 48 288 288l20 19v20l-65 122q78 48 199 50z" />
    <glyph glyph-name="u10C13" unicode="&#x10c13;" horiz-adv-x="1590" 
d="M1026 1288q364 -42 364 -135l-288 -422v-39q14 -73 288 -268q0 -77 -384 -77l-172 96q-358 -231 -634 -231v39q346 319 346 441l-346 288q73 58 173 58h57q180 0 288 -77h58q70 55 154 288q52 39 96 39z" />
    <glyph glyph-name="u10C14" unicode="&#x10c14;" horiz-adv-x="2109" 
d="M949 1384h19q365 0 365 -365q0 -77 57 -77l173 38h19q250 0 327 -115q-45 -57 -96 -288q-96 -73 -221 -103.5t-163 -69.5h-43q-39 39 -15 116l77 249l-77 39q-134 -44 -134 -192q-61 -257 -269 -384l-269 -116h-39q-45 4 -18 39q230 285 230 461l-46 38q-217 0 -530 -173
q-96 25 -96 58q134 192 134 249v135l-38 57q0 77 230 77h96q137 -12 173 -125v-163h39q76 19 76 115q0 186 -134 384v20q0 57 173 96z" />
    <glyph glyph-name="u10C15" unicode="&#x10c15;" horiz-adv-x="2109" 
d="M949 1384h19q365 0 365 -365q0 -77 57 -77l173 38h19q250 0 327 -115q-45 -57 -96 -288q-96 -73 -221 -103.5t-163 -69.5h-43q-39 39 -15 116l77 249l-77 39q-134 -44 -134 -192q-61 -257 -269 -384l-269 -116h-39q-45 4 -18 39q230 285 230 461l-46 38q-217 0 -530 -173
q-96 25 -96 58q134 192 134 249v135l-38 57q0 77 230 77h96q137 -12 173 -125v-163h39q76 19 76 115q0 186 -134 384v20q0 57 173 96z" />
    <glyph glyph-name="u10C16" unicode="&#x10c16;" horiz-adv-x="1994" 
d="M642 1364l268 -134h77l480 76q327 0 327 -307q0 -492 -980 -633q-96 -62 -96 -134l-96 -58l-115 -1q-153 -37 -249 -37l-58 19v39q134 215 134 536q0 305 -115 557h19q127 58 404 77zM853 500h19q384 147 384 422l19 116v19q0 115 -115 115q-269 0 -269 -134z" />
    <glyph glyph-name="u10C18" unicode="&#x10c18;" horiz-adv-x="1590" 
d="M762 1249q628 0 628 -230q0 -503 -518 -672l-288 -96l-91 20q33 85 168 167q134 82 173 178l38 96l24 69q-178 -27 -250 -49t-120 -59q-326 87 -326 269q0 155 353 275q108 32 209 32zM642 980q9 -68 91 -117q81 -48 120 -48h50q24 89 27 185q-48 96 -173 96
q-82 0 -115 -116z" />
    <glyph glyph-name="u10C1A" unicode="&#x10c1a;" horiz-adv-x="2224" 
d="M1045 1403q326 0 326 -173l135 -77h192l326 -57v-20q-40 -66 -442 -211l-345 -134q-65 0 -211 -519q-108 -115 -327 -115q-115 0 -115 135v76l77 269h-192q-269 59 -269 231v38q0 154 192 154h38q112 0 250 -212l173 -57l384 153v77q-384 117 -384 231q0 128 192 211z
" />
    <glyph glyph-name="u10C1C" unicode="&#x10c1c;" horiz-adv-x="1974" 
d="M565 1441h115q250 -44 250 -96l288 19h153q403 -43 403 -192q0 -154 -230 -345v-19q0 -34 125 -77q86 -58 86 -154q-241 -276 -576 -384l-134 19q-661 -153 -787 -153l-58 19v19q154 85 154 711v230q0 163 -39 250q0 90 250 153zM1026 1153v-115l-20 -230l20 -20h19
q107 0 211 308v76l-192 20zM949 366h153l231 173q-58 134 -115 134q-269 0 -269 -307z" />
    <glyph glyph-name="u10C1E" unicode="&#x10c1e;" horiz-adv-x="1514" 
d="M910 1288q404 -39 404 -404l-39 -364l39 -173v-39q-212 -22 -456 -96l-44 77h-76l-384 -57q-154 45 -154 115l595 115l19 480l-38 173q0 111 134 173z" />
    <glyph glyph-name="u10C20" unicode="&#x10c20;" horiz-adv-x="1686" 
d="M1198 1316q243 -96 288 -192v-38q-241 -274 -441 -403v-19l38 -269v-58q0 -99 -345 -153l-212 38q0 101 58 173q-118 653 -346 653l-38 96v38q19 58 115 58h115q84 0 384 -192h20q34 0 230 230z" />
    <glyph glyph-name="u10C22" unicode="&#x10c22;" horiz-adv-x="2433" 
d="M1383 1480q202 -314 573 -314q0 -31 277 -55q-90 -129 -647 -351q0 -57 -185 -222l19 -222v-74q0 -61 -407 -129l-37 37v185q0 57 148 277l-18 18q-296 -49 -296 -92q-111 -173 -111 -388l-55 -37l-93 18l-92 -37q-74 -35 -148 -74h-56l-18 93q45 200 333 573l-19 18
q-351 98 -351 259q33 203 351 203q81 0 259 -203l111 -37l240 148q-124 44 -203 148q0 258 332 258h93zM1124 871q0 -65 203 -93h19q248 100 296 166v56l-167 37h-111q-80 0 -240 -166z" />
    <glyph glyph-name="u10C23" unicode="&#x10c23;" horiz-adv-x="1629" 
d="M757 1268q672 -22 672 -326v-77q0 -255 -979 -633q-135 0 -135 38q576 348 576 480q24 67 0 134q-48 102 -153 154q-116 36 -231 0l-134 -77q-135 0 -173 39q262 178 557 268z" />
    <glyph glyph-name="u10C24" unicode="&#x10c24;" horiz-adv-x="2742" 
d="M1506 1480q422 -88 422 -327l-19 -230v-115l19 -20h115v269q29 307 269 307q192 0 192 -268l38 -192q0 -170 -384 -231h-192q-102 -32 -153 -230q-192 -198 -480 -307h-115l-39 38q173 388 173 480v19h-115q0 -267 -999 -653h-38q16 44 47 59q548 340 548 652l-115 134
q-14 17 0 39q60 99 173 134q211 0 441 -154l58 20v19l-96 384q74 173 250 173z" />
    <glyph glyph-name="u10C26" unicode="&#x10c26;" horiz-adv-x="1706" 
d="M949 1192h173q384 -106 384 -212v-19q0 -162 -250 -441l-326 -135l-116 58l-345 -135q-187 0 -269 384q67 221 250 346q338 154 499 154zM584 846v-38h19l288 57h19l96 -19v-19q0 -39 -268 -135h-116v-96q0 -62 308 -134l192 403q0 127 -346 154q-192 -19 -192 -173z" />
    <glyph glyph-name="u10C28" unicode="&#x10c28;" horiz-adv-x="1744" 
d="M603 1422h39q96 0 230 -230h307q365 -58 365 -116q0 -85 -403 -134q-209 -78 -232 -134h155q365 -58 365 -154q-453 -231 -461 -269l-38 -38v-39l115 -115q0 -63 -538 -115h-19q-114 0 -154 115q0 142 423 365q19 19 39 58h-327q-269 19 -269 76q0 58 653 269
q0 39 -288 39q-220 0 -346 230q0 115 384 192z" />
    <glyph glyph-name="u10C2A" unicode="&#x10c2a;" horiz-adv-x="1763" 
d="M1102 1288q351 0 461 -192v-20q0 -160 -259 -326q73 -36 86 -115q0 -373 -768 -423h-76v39q268 198 288 249l55 83q-159 -1 -636 -113q-35 0 -53 5q10 22 22 37q50 46 189 108l288 167q-38 21 -96 21l-249 -20v20q0 80 384 115l134 -19q64 0 173 172q0 77 -231 77h-50
l12 39q0 76 326 96z" />
    <glyph glyph-name="u10C2D" unicode="&#x10c2d;" horiz-adv-x="1552" 
d="M910 1345h116q307 -78 307 -307v-326l19 -173q0 -288 -203 -321q-47 -19 -277 -63q-38 2 -38 77l38 153v269l-422 -10l-116 -28q-134 45 -134 136q0 65 634 114v268l-20 192z" />
    <glyph glyph-name="u10C2F" unicode="&#x10c2f;" horiz-adv-x="1686" 
d="M1122 1307l134 -20l19 20h19q192 -58 192 -192v-39l-115 -384v-173l58 -307h-19l-461 -19q-154 58 -154 230v383l19 134l-19 19h-365l-230 -19q0 117 72 131l216 44h346q0 153 134 153z" />
    <glyph glyph-name="u10C30" unicode="&#x10c30;" horiz-adv-x="1802" 
d="M1102 1393h39q422 -85 422 -269q0 -121 -499 -230l-38 38v231h-116q-192 -39 -192 -96v-19l39 -154v-178l192 -2l345 -12q308 -46 308 -154q-29 -76 -177 -181q-152 -126 -572 -260v19q326 241 326 365v96q-81 62 -192 38q-263 0 -345 -326q0 -130 -404 -154l58 288v307
q-2 154 -38 346l-58 134q71 58 134 58l116 -38h230z" />
    <glyph glyph-name="u10C32" unicode="&#x10c32;" horiz-adv-x="1782" 
d="M987 1345q384 0 384 -230v-19q0 -201 -307 -461v-19q518 -141 518 -269v-19l-441 -135h-19q-153 231 -346 231q-374 -269 -518 -269l-58 19v19q634 551 634 941q0 211 153 211z" />
    <glyph glyph-name="u10C34" unicode="&#x10c34;" horiz-adv-x="1744" 
d="M1294 1432q207 0 231 -327v-749l19 -134q-108 -76 -192 -77l-115 -11l-77 -8q-45 67 -96 422v269h-175v-115q0 -276 -459 -576l-230 -58v20q230 148 230 441l20 58v115q-40 97 -173 192v38q0 32 115 77v19l365 -57h307v77l18 153l1 96q133 135 211 135z" />
    <glyph glyph-name="u10C36" unicode="&#x10c36;" horiz-adv-x="1882" 
d="M1440 289q31 -57 20 -112l-4 -19l-459 -44l-19 4q-170 270 -668 512l-66 16l-53 31l4 18q798 400 850 653q42 207 192 177q328 -67 335 -248q134 -25 134 -146q-77 -250 -77 -415v-116l19 -172q0 -77 -170 -116q-20 -13 -38 -23zM1261 465l2 20l38 377q0 91 9 162
q-78 -33 -180 -69l-499 -195q422 -155 630 -295z" />
    <glyph glyph-name="u10C38" unicode="&#x10c38;" horiz-adv-x="1898" 
d="M757 1268h192q140 0 192 -134l-39 -192q0 -96 20 -115l19 -288v-77h19q59 0 154 211l96 19h192l96 -19v-19q-190 -281 -711 -422h-192q-115 0 -115 153q-185 -31 -307 -115q-47 0 -173 154v38q0 71 288 115h38l154 -38v499l-38 154q19 76 115 76z" />
    <glyph glyph-name="u10C3A" unicode="&#x10c3a;" horiz-adv-x="1706" 
d="M1198 1345q308 0 308 -153q-77 -250 -77 -576v-116l19 -172q0 -77 -170 -116q-88 -57 -233 -57q-77 0 -77 230v154l-58 19q-153 0 -614 -173h-38l-58 58q173 116 173 230v231l-19 192q98 57 192 57h96q146 0 172 -192l-38 -307h38q192 0 192 269q0 422 192 422z" />
    <glyph glyph-name="u10C3C" unicode="&#x10c3c;" horiz-adv-x="2320" 
d="M1698 1287h19q192 0 192 -173q69 -134 211 -134v-38l-307 -77h-39l-249 77h-39l-57 -77q152 -197 173 -384q0 -146 -346 -192l-96 -77h-58q-48 0 -96 461q-90 134 -134 134l-672 -153v38q499 142 499 499q0 46 154 58q192 0 384 -192l59 -42q222 272 402 272z" />
    <glyph glyph-name="u10C3D" unicode="&#x10c3d;" horiz-adv-x="1982" 
d="M1674 1441q83 0 108 -61v-46q-66 -133 -307 -308v-15l184 -61l24 -30l-39 -16l-292 -47h-184l-246 -92q215 -141 215 -276q-173 -338 -399 -338l-492 -92l-15 15v16q291 107 384 307q-54 199 -277 199l-77 -46h-46l-15 77v46q94 138 292 138l184 31q138 34 138 77
q-230 195 -230 307q0 154 384 169q65 -16 169 -200h15q84 0 231 200q153 46 291 46z" />
    <glyph glyph-name="u10C3E" unicode="&#x10c3e;" horiz-adv-x="957" 
d="M334 1355q423 0 423 -327v-537q-136 -327 -403 -327l-96 -19l-58 19l58 231v499l-20 173l-19 173q0 70 115 115z" />
    <glyph glyph-name="u10C41" unicode="&#x10c41;" horiz-adv-x="2128" 
d="M1563 1345q173 -11 173 -57q-66 -137 -403 -384v-20l96 -19h288q211 0 211 -57q-271 -135 -576 -135q-38 -38 -58 -297q-193 -173 -499 -221l-57 19l57 326l-38 154h-58l-345 -77q-154 23 -154 77q0 82 403 154v19l-192 192l-19 115q55 71 154 77q316 0 518 -192h38
q257 326 442 326h19z" />
    <glyph glyph-name="u10C43" unicode="&#x10c43;" horiz-adv-x="2265" 
d="M1083 1432h192q148 0 211 -288l519 -96q45 -3 60 -29q-27 -21 -60 -29q-265 -77 -442 -77l-249 58h-96l-711 -288q-74 -39 -211 -39q-96 15 -96 58q26 40 403 154q346 201 346 364v135q31 77 134 77zM1160 779h19q711 0 711 -346q0 -115 -308 -269q-93 -76 -288 -76
l-76 38q172 238 172 288q0 77 -96 134q-134 0 -134 -134v-115l19 -96q-59 -48 -365 -135q-121 0 -153 250q0 284 499 461z" />
    <glyph glyph-name="u10C45" unicode="&#x10c45;" horiz-adv-x="1706" 
d="M430 1288q202 0 365 -231h19l519 77q86 0 173 -38l-21 -107q-11 -118 -18 -354v-77l-384 -96q-87 0 -115 230l58 231l-20 19h-38q-103 0 -134 -77v-57q0 -377 -288 -500q-160 -76 -308 -96v20q77 258 77 480q0 134 -57.5 266.5t-57.5 232.5q78 77 230 77z" />
    <glyph glyph-name="u10C47" unicode="&#x10c47;" horiz-adv-x="1960" 
d="M671 1441h114q217 0 272 -357l-12 -99v-97h17q113 0 113 97l-12 99q26 276 175 276q62 49 130 49h48q147 -33 147 -81v-17l-33 -130v-16q0 -81 130 -212v-16l-32 -33l-98 17l-650 -130q-65 -49 -65 -98h357q232 -69 325 -178v-163q0 -141 -162 -180q0 -55 -406 -113v16
l114 179v146q0 137 -196 163h-97q-212 -76 -212 -163q97 -173 261 -260v-16l-423 -65q-150 0 -211 309l-65 16l244 260l81 147v325q-65 105 -65 162q0 131 211 163z" />
  </font>
</defs>
</svg>
